<svg xmlns="http://www.w3.org/2000/svg" viewBox="0 0 256 256" width="256" height="256">
  <defs>
    <linearGradient id="g1" x1="0" y1="0" x2="1" y2="1">
      <stop offset="0%" stop-color="#6366f1"/>
      <stop offset="100%" stop-color="#06b6d4"/>
    </linearGradient>
    <linearGradient id="g1b" x1="0" y1="0" x2="0" y2="1">
      <stop offset="0%" stop-color="#fbbf24"/>
      <stop offset="100%" stop-color="#f97316"/>
    </linearGradient>
  </defs>
  <rect x="8" y="8" width="240" height="240" rx="48" fill="url(#g1)"/>
  <!-- code brackets -->
  <path d="M70 88 L40 128 L70 168" fill="none" stroke="#ffffff" stroke-width="14" stroke-linecap="round" stroke-linejoin="round" opacity="0.95"/>
  <path d="M186 88 L216 128 L186 168" fill="none" stroke="#ffffff" stroke-width="14" stroke-linecap="round" stroke-linejoin="round" opacity="0.95"/>
  <!-- centered wrench, diagonal, balanced around (128,128) -->
  <g transform="translate(128 128) rotate(-45)">
    <!-- handle centered on origin -->
    <rect x="-10" y="-44" width="20" height="88" rx="7" fill="url(#g1b)"/>
    <!-- head at top -->
    <path d="M-26 -44 a26 26 0 1 1 52 0 l-12 10 l0 14 l-28 0 l0 -14 z" fill="url(#g1b)"/>
    <circle cx="0" cy="-56" r="9" fill="#1e293b"/>
    <!-- grip detail at bottom -->
    <rect x="-12" y="38" width="24" height="6" rx="2" fill="#1e293b" opacity="0.35"/>
  </g>
</svg>
